<mxfile host="app.diagrams.net" modified="2020-11-26T10:22:23.051Z" agent="5.0 (Windows NT 10.0; Win64; x64) AppleWebKit/537.36 (KHTML, like Gecko) Chrome/86.0.4240.111 Safari/537.36" etag="6HsC7TwREQv0Exkq5IGs" version="13.9.2" type="github">
  <diagram id="pLHrCSQ61jHJKOxd-bCE" name="第 1 页">
    <mxGraphModel dx="720" dy="265" grid="0" gridSize="10" guides="1" tooltips="1" connect="1" arrows="1" fold="1" page="1" pageScale="1" pageWidth="827" pageHeight="1169" math="0" shadow="0">
      <root>
        <mxCell id="0" />
        <mxCell id="1" parent="0" />
        <mxCell id="QiRTuMJIQ0KH8p828QrV-6" value="" style="group" vertex="1" connectable="0" parent="1">
          <mxGeometry x="280" y="380" width="320" height="200" as="geometry" />
        </mxCell>
        <mxCell id="QiRTuMJIQ0KH8p828QrV-1" value="Hardware" style="rounded=0;whiteSpace=wrap;html=1;fillColor=#dae8fc;strokeColor=#6c8ebf;" vertex="1" parent="QiRTuMJIQ0KH8p828QrV-6">
          <mxGeometry y="140" width="320" height="60" as="geometry" />
        </mxCell>
        <mxCell id="QiRTuMJIQ0KH8p828QrV-2" value="Hypervisor(VMM) Type1(ESXi, Xen...)" style="rounded=0;whiteSpace=wrap;html=1;fillColor=#d5e8d4;strokeColor=#82b366;" vertex="1" parent="QiRTuMJIQ0KH8p828QrV-6">
          <mxGeometry y="70" width="320" height="60" as="geometry" />
        </mxCell>
        <mxCell id="QiRTuMJIQ0KH8p828QrV-3" value="VM1&lt;br&gt;Ubuntu" style="rounded=0;whiteSpace=wrap;html=1;fillColor=#f5f5f5;strokeColor=#666666;fontColor=#333333;" vertex="1" parent="QiRTuMJIQ0KH8p828QrV-6">
          <mxGeometry width="100" height="60" as="geometry" />
        </mxCell>
        <mxCell id="QiRTuMJIQ0KH8p828QrV-4" value="VM2&lt;br&gt;Windows" style="rounded=0;whiteSpace=wrap;html=1;fillColor=#f5f5f5;strokeColor=#666666;fontColor=#333333;" vertex="1" parent="QiRTuMJIQ0KH8p828QrV-6">
          <mxGeometry x="110" width="100" height="60" as="geometry" />
        </mxCell>
        <mxCell id="QiRTuMJIQ0KH8p828QrV-5" value="VM3&lt;br&gt;CentOS" style="rounded=0;whiteSpace=wrap;html=1;fillColor=#f5f5f5;strokeColor=#666666;fontColor=#333333;" vertex="1" parent="QiRTuMJIQ0KH8p828QrV-6">
          <mxGeometry x="220" width="100" height="60" as="geometry" />
        </mxCell>
      </root>
    </mxGraphModel>
  </diagram>
</mxfile>
